# xmcd
#
# Track frame offsets:
#	150
#	23001
#	40293
#	63869
#	84932
#	104615
#	125750
#	143637
#	162611
#	184398
#	196306
#	219229
#	242568
#	264504
#	275319
#	290219
#	307956
#	313116
#	315125
#	317301
#
# Disc length: 4340 seconds
#
# Revision: 1
# Processed by: cddbd v1.5PL3 Copyright (c) Steve Scherf et al.
# Submitted via: CDex 1.50Beta5
#
DISCID=1a10f214
DTITLE=James Havens - Best In Zip-City!
DYEAR=1900
DGENRE=Pop -> General Pop
TTITLE0=Till The End Of Time
TTITLE1=All Into You
TTITLE2=My Love
TTITLE3=Here For You
TTITLE4=Run Together ~Bright
TTITLE5=Run Together ~James
TTITLE6=Still Red Hot
TTITLE7=Music Magic
TTITLE8=Gland You Stayed
TTITLE9=Yes Zip! Yes Music!
TTITLE10=My Love -10th Anniversary Ver.-
TTITLE11=Living In Nagoya
TTITLE12=ずっと一緒に…
TTITLE13=I Love You
TTITLE14=Day 愛
TTITLE15=I Write The Songs
TTITLE16=ボーナス1
TTITLE17=ボーナス2
TTITLE18=ボーナス3
TTITLE19=ボーナス4
EXTD=
EXTT0=
EXTT1=
EXTT2=
EXTT3=
EXTT4=
EXTT5=
EXTT6=
EXTT7=
EXTT8=
EXTT9=
EXTT10=
EXTT11=
EXTT12=
EXTT13=
EXTT14=
EXTT15=
EXTT16=
EXTT17=
EXTT18=
EXTT19=
PLAYORDER=
